<svg xmlns="http://www.w3.org/2000/svg" viewBox="0 0 1356.97 332.36">
  <title>Resurs 1</title>
  <g id="Lager_2" data-name="Lager 2">
    <g id="Layer_1" data-name="Layer 1">
      <g>
        <g>
          <polygon points="380.85 161.32 380.85 161.32 380.85 161.32 380.85 161.32"/>
          <path d="M1292.94,244h.46c27.46,0,46.79-19,47-46.26.1-13.48-3.79-25.82-11-34.74-7.59-9.44-18.21-14.47-30.72-14.57h-.26c-16.88,0-32.56,12.81-47.93,39.18l-1.23,2.09-.78-2.29c-3.88-11.3-7.34-20.72-9.41-26.34-1.44-3.93-2.09-5.69-2.24-6.26a6.19,6.19,0,0,0-6.37-4.63,11.39,11.39,0,0,0-6,1.93,7,7,0,0,0-3.44,4.8l-.1.3c-15.38,48-28.07,71.28-38.81,71.29a4.81,4.81,0,0,1-3.7-1.54c-2.81-3.11-2.12-10.52-1.17-20.76a189.2,189.2,0,0,0,1.17-25.08c-.63-17.38-10.14-27.82-25.43-27.93-19.43,0-32,20.68-37.82,33l-1.73,3.68-.38-4.05c-1.45-15.26-6.57-33.49-22.75-33.61-18.86,0-33.23,22.14-42,40.72l-2.35,5,.23-5.5c1-24.78,1.91-39.4,2.55-43.46s.3-6.8-1-8.36-3.64-2-7.13-1.79c-6,.38-9.13,4.05-13.77,16.37-7.64,20.24-27.07,67.32-42.58,67.32a9.33,9.33,0,0,1-7.29-3.12c-6.51-7.46-3.91-27.62-.31-55.51l.27-2.11c1.71-13.21-1.2-16-8.37-17.35a12.39,12.39,0,0,0-2.18-.22c-5.73,0-8.41,5.49-13.76,20.74-9.52,27.13-21.76,55.67-36.09,55.67a9.24,9.24,0,0,1-1.57-.13c-7.58-1.29-7.42-12.55-7.21-26.81.11-7.71.24-16.45-1-24.34-2.14-14.17-10.48-23-21.78-23.1-22.55,0-37.76,28.87-44.83,46.09l-1.6,3.89L838,192c-.95-7.46-2.2-19.29-2.75-33.28v-.41l.25-.33c42.21-53.12,61.14-91.45,61.39-124.3C897.06,12.73,887.38.13,871,0c-12,0-40.45,10-50.34,102.36-1.83,17.13-2.84,34.69-3,52.2v.34l-.19.28c-19.3,27.95-60.51,76-100.85,76-36.45,0-65.54-29.49-65.54-81.54C651.09,79.88,700.49,37,737.66,37h.3c8.08.06,15,2.31,20,6.52a22.05,22.05,0,0,1,7.89,17.7c-.07,9.64-3.21,14.59-6.24,19.37-.78,1.23-1.56,2.46-2.27,3.75S756,87.59,757,89.22s3.47,2.71,6.52,2.73c8.85,0,22.23-12.8,22.37-32.1.16-20.2-16.86-41-47.21-41-45.94,0-107.8,50.46-107.8,132.25,0,57.85,36.27,97.84,85.41,97.84,34.87,0,69.36-25,99.91-66.66l1.87-2.53.13,3.14c.65,15.26,1.76,27.29,2.57,36.08.52,5.64.9,9.72.88,12,0,4.93.77,8.35,2.47,10.45s4.4,3.1,8.49,3.13c6.86,0,8.23-4.68,10.95-16.21l.78-3.29c3.38-14,15.85-59.62,34.61-59.62a9.38,9.38,0,0,1,7.1,2.71c4.14,4.4,3.69,13.41,3.16,23.85a135,135,0,0,0,0,19.81c1.77,17.7,9.41,26.36,23.37,26.46,14.33,0,29.29-15.43,37.18-29.78l1.49-2.71.57,3c1.46,7.68,8,32.88,28.38,32.88,18.49,0,34.34-19.47,51.73-59.53l2.27-5.24-.14,5.71c-.37,15.18-1.19,33.72-1.2,48.06,0,11.08,1.12,15.31,6.24,15.31.36,0,.75.06,1.16.06,4.92,0,8.26-2.94,9.92-8.74,13.08-45.59,24.38-66.82,35.58-66.82,11,.08,12,20.13,12.88,55.57l.06,2.48c.27,12.4.71,17.88,8.41,17.94,5.84,0,7.3-4.59,10.32-15.89.57-2.16,1.21-4.52,1.94-7.07,10.56-36.64,19.32-51.59,30.22-51.59,9.33.07,9.85,9.69,10,12.85.36,6.77-.34,13.86-1,20.7a142,142,0,0,0-1,19.06c.57,14.33,8.42,22.28,22.1,22.39,17.76,0,33.78-20.76,47.82-61.71l1-2.85,1.11,2.8c2.55,6.43,5.87,15.14,8.94,25.54l.12.39-.17.38c-13.59,30.18-23.18,63.8-23.32,81.75-.18,23.66,10.53,39,27.27,39.16h.29c9.11,0,30.35-3.66,30.76-37.51.16-13.87-3.11-33.49-9.74-58.31l-.76-2.84,2.45,1.62A50.61,50.61,0,0,0,1292.94,244ZM835.33,129.22c.38-8.48,1.09-16.74,2.11-24.55C844,54.35,857.72,19.2,870.8,19.2h.06c6.23.05,9.36,4.76,9.29,14-.18,22.72-14.57,55.25-42.79,96.69l-2.21,3.24Zm417,180.93a10.22,10.22,0,0,1-8.61,4.17c-4.17,0-7.3-1.49-9.43-4.33-6-8-4.28-26.71,5.45-60.75,1.16-4.06,2.43-8.14,3.76-12.14l1.13-3.4,1,3.44C1257,276.41,1259.25,301,1252.35,310.15Zm3.53-100.62-.21-.38-.41-1.3.19-.4c12.94-26.65,27.76-41.93,40.66-41.93h.13c14.56.11,24.64,13.22,24.49,31.86-.09,12.45-5.58,19.61-10.16,23.43a30.24,30.24,0,0,1-19.1,6.85C1274.42,227.54,1262.72,217.73,1255.88,209.53Z"/>
          <path d="M1296.11,166.65h0Z"/>
          <path d="M430.85,239.61c20-1.6,35.81-28.75,41.69-40.35l1.52-3,.57,3.31c2.82,16.32,11.7,43.74,39.47,44h.23c12,0,25.64-7.35,39.41-21.25l1-1,.74,1.23c9.27,15.51,21.71,23.75,34.94,23.07,19.5-1,31.33-14.83,32.37-24.42a8.06,8.06,0,0,0-1.78-6.3,4.1,4.1,0,0,0-6.17-.39l-.88.84c-4.54,4.36-13,12.48-22.21,13-11.28.55-19.62-6.2-25-20.11l-.23-.59.38-.49c31-40.57,52.79-102.48,50.64-144-1-19.21-6.58-42.12-27.57-42.12-.51,0-1,0-1.56,0-8,.41-15.35,4.24-21.73,11.38C547.2,54.15,537,107.77,540.71,169a137.83,137.83,0,0,0,6.56,35.31l.2.6-.4.48c-11.51,13.45-22.87,20.86-32,20.86-21.93,0-21.19-36.76-19.46-67.25.38-6.57.93-10.76-1-13.14-1.39-1.71-3.72-2.55-7.1-2.57h-.4c-7.8,0-9.43,1.61-13.43,13.19-8.3,24.06-24.7,64.42-41.19,64.42-4.57,0-8.06-1.6-10.44-4.64-8-10.22-1.93-35.68,2.95-56.15.88-3.68,1.72-7.21,2.44-10.48,1.07-4.85.74-8.39-1-10.53s-5.15-3-9.68-2.65c-7.06.57-11.58,3.52-13.76,17l-.44,2.79-1.64-2c-3.08-4.55-9.1-10-20.26-10-1,0-2,0-3,.13-11.91,1-25.48,9.27-35.4,21.66a72.54,72.54,0,0,0-15.59,51.54c.08,1,.23,1.95.37,2.9l.08.52-.36.4c-6.94,7.55-14,11.39-21,11.39-10.81-.09-17-8.12-17-21.5,0-22.51,15.26-90.38,15.26-114.95,0-26.15-11.65-40.39-31.88-40.55h-.31c-29.54,0-52.57,33.53-74.61,102.5-2,6.32-4.21,13.62-6.09,19.93L188,188.54l.91-10.78c2-24,3.46-47.41,4.18-69.49,1.1-33.33-3.41-54.79-13.78-65.58-5.59-5.83-13-8.69-22.62-8.77h-.26c-36.15,0-53.47,61-66.08,104-3.81,13-11.32,42.28-16.32,62.31l3-4.82c2.23-25.22,8.67-88.39,8.25-122.66C84.81,36,72.56,19.5,45.56,19.29h-.33c-14.42,0-24.43,7.17-30.29,13.19C5.55,42.13-.31,56.24,0,68.42c.2,7.4,4.75,14,8.19,14,2.24,0,3.49-3,4-4.78,8.35-27.61,19.16-41,33-41,5.75,0,10,1.74,13.24,5.19,10.84,11.63,8.87,43,5.29,100-1.15,18.38-2.45,39.19-3.56,62.87-.19,4.06-.44,8-.68,11.72-1.06,16.45-1.89,29.44,4.35,30.4,8.11,1.27,13.39-2,16.09-10.06,4-11.92,13-44.49,30.4-104,16.69-57.12,29.3-77.9,45.43-77.9,18.64,0,20,32,16.61,99.53-.72,14.32-1.7,30.53-2.45,48.18-.1,2.48-.22,4.89-.33,7.2-.72,14.61-1.29,26.15,2.88,30.56a7.14,7.14,0,0,0,5.42,2.08c8.08,0,10.51-7.09,14.54-18.83.71-2.08,1.46-4.28,2.3-6.6C222.49,140.57,243,74.31,270.44,74.31c8.24,0,14.65,6.7,14.65,19.75,0,30.14-14.73,88.37-14.73,117.89,0,10.57,3,20.07,8.79,26.74,5.91,6.85,14.16,10.51,23.88,10.58h.22c9.19,0,18.77-4.47,28.47-13.27l.91-.83.74,1a31.24,31.24,0,0,0,27.83,12.35c17.07-1.33,31.4-16.54,36.73-30.87l1-2.81,1,2.81C404,228.28,412.54,241.1,430.85,239.61ZM588.2,40.05h.3A6.27,6.27,0,0,1,593.59,43c6.77,9.17,6.88,42.62-4.78,80.69-6.67,21.76-15.63,42.31-25.92,59.44l-1.64,2.73-.42-3.16c-1.21-9.2-1.8-18.79-2.23-26.95C555.63,98.17,573,40.84,588.2,40.05ZM398.73,174.54c-6,24.05-17.44,53.07-38.1,54.73-.58,0-1.14.07-1.68.07-8.57,0-13.38-5.61-14.29-16.68-1.13-13.85,4.84-30.07,15.22-41.34,6.6-7.17,14.05-11.12,21-11.12H381c8.74.07,14.87,7.09,17.68,13.63l.15.34Z"/>
          <path d="M870.8,20.32Z"/>
          <path d="M494.57,86.38a13.5,13.5,0,1,0-.21,27l.11,1.11h0v-1.11a13.5,13.5,0,1,0,.1-27Z"/>
          <path d="M974.14,86.38a13.5,13.5,0,1,0-.21,27l.11,1.11h0v-1.11a13.5,13.5,0,1,0,.1-27Z"/>
        </g>
        <g>
          <path d="M1347.6,228.78a9.37,9.37,0,1,0,9.37,9.37A9.38,9.38,0,0,0,1347.6,228.78Zm0,17.38a8,8,0,1,1,8-8A8,8,0,0,1,1347.6,246.16Z"/>
          <path d="M1351.75,235.71c0-1.94-1-3-3.4-3h-4.16v10.8h1.37v-4.73h1.94l3.22,4.73h1.53l-3.22-4.73A2.91,2.91,0,0,0,1351.75,235.71Zm-4.45,1.86h-1.74v-3.65H1348c1.16,0,2.42.4,2.42,1.79C1350.39,237.5,1348.78,237.57,1347.3,237.57Z"/>
        </g>
      </g>
    </g>
  </g>
</svg>
